<svg width="32" height="32" viewBox="0 0 32 32" fill="none" xmlns="http://www.w3.org/2000/svg">
<rect width="32" height="32" rx="16" fill="#535353"/>
<path d="M16.22 6H15.78C15.2496 6 14.7409 6.21071 14.3658 6.58579C13.9907 6.96086 13.78 7.46957 13.78 8V8.18C13.7796 8.53073 13.6871 8.87519 13.5115 9.17884C13.336 9.48248 13.0837 9.73464 12.78 9.91L12.35 10.16C12.046 10.3355 11.7011 10.4279 11.35 10.4279C10.9989 10.4279 10.654 10.3355 10.35 10.16L10.2 10.08C9.74106 9.81526 9.19584 9.74344 8.684 9.88031C8.17217 10.0172 7.73555 10.3515 7.47 10.81L7.25 11.19C6.98526 11.6489 6.91344 12.1942 7.05031 12.706C7.18717 13.2178 7.52154 13.6544 7.98 13.92L8.13 14.02C8.43228 14.1945 8.68362 14.4451 8.85905 14.7468C9.03448 15.0486 9.12789 15.391 9.13 15.74V16.25C9.1314 16.6024 9.03965 16.949 8.86404 17.2545C8.68844 17.5601 8.43521 17.8138 8.13 17.99L7.98 18.08C7.52154 18.3456 7.18717 18.7822 7.05031 19.294C6.91344 19.8058 6.98526 20.3511 7.25 20.81L7.47 21.19C7.73555 21.6485 8.17217 21.9828 8.684 22.1197C9.19584 22.2566 9.74106 22.1847 10.2 21.92L10.35 21.84C10.654 21.6645 10.9989 21.5721 11.35 21.5721C11.7011 21.5721 12.046 21.6645 12.35 21.84L12.78 22.09C13.0837 22.2654 13.336 22.5175 13.5115 22.8212C13.6871 23.1248 13.7796 23.4693 13.78 23.82V24C13.78 24.5304 13.9907 25.0391 14.3658 25.4142C14.7409 25.7893 15.2496 26 15.78 26H16.22C16.7504 26 17.2591 25.7893 17.6342 25.4142C18.0093 25.0391 18.22 24.5304 18.22 24V23.82C18.2204 23.4693 18.3129 23.1248 18.4885 22.8212C18.664 22.5175 18.9163 22.2654 19.22 22.09L19.65 21.84C19.954 21.6645 20.2989 21.5721 20.65 21.5721C21.0011 21.5721 21.346 21.6645 21.65 21.84L21.8 21.92C22.2589 22.1847 22.8042 22.2566 23.316 22.1197C23.8278 21.9828 24.2644 21.6485 24.53 21.19L24.75 20.8C25.0147 20.3411 25.0866 19.7958 24.9497 19.284C24.8128 18.7722 24.4785 18.3356 24.02 18.07L23.87 17.99C23.5648 17.8138 23.3116 17.5601 23.136 17.2545C22.9603 16.949 22.8686 16.6024 22.87 16.25V15.75C22.8686 15.3976 22.9603 15.051 23.136 14.7455C23.3116 14.4399 23.5648 14.1862 23.87 14.01L24.02 13.92C24.4785 13.6544 24.8128 13.2178 24.9497 12.706C25.0866 12.1942 25.0147 11.6489 24.75 11.19L24.53 10.81C24.2644 10.3515 23.8278 10.0172 23.316 9.88031C22.8042 9.74344 22.2589 9.81526 21.8 10.08L21.65 10.16C21.346 10.3355 21.0011 10.4279 20.65 10.4279C20.2989 10.4279 19.954 10.3355 19.65 10.16L19.22 9.91C18.9163 9.73464 18.664 9.48248 18.4885 9.17884C18.3129 8.87519 18.2204 8.53073 18.22 8.18V8C18.22 7.46957 18.0093 6.96086 17.6342 6.58579C17.2591 6.21071 16.7504 6 16.22 6V6Z" stroke="white" stroke-width="2" stroke-linecap="round" stroke-linejoin="round"/>
<path d="M16 19C17.6569 19 19 17.6569 19 16C19 14.3431 17.6569 13 16 13C14.3431 13 13 14.3431 13 16C13 17.6569 14.3431 19 16 19Z" stroke="white" stroke-width="2" stroke-linecap="round" stroke-linejoin="round"/>
</svg>
