<svg width="88" height="88" viewBox="0 0 88 88" fill="none" xmlns="http://www.w3.org/2000/svg">
<g filter="url(#filter0_i_1_21)">
<rect x="8" y="8" width="72" height="72" rx="36" fill="#0C54C5"/>
<path d="M33.264 50.256C31.7173 50.256 30.5173 49.9093 29.664 49.216C28.8213 48.5227 28.3947 47.5307 28.384 46.24H30.512C30.5227 47.0507 30.7627 47.632 31.232 47.984C31.712 48.336 32.4107 48.512 33.328 48.512C34.0747 48.512 34.6453 48.3733 35.04 48.096C35.4347 47.808 35.632 47.3973 35.632 46.864C35.632 46.416 35.4613 46.0747 35.12 45.84C34.7893 45.6053 34.1813 45.3973 33.296 45.216L32.336 45.024C29.8933 44.5653 28.672 43.4133 28.672 41.568C28.672 40.5867 29.0453 39.808 29.792 39.232C30.5387 38.6453 31.5733 38.352 32.896 38.352C34.4 38.352 35.536 38.672 36.304 39.312C37.0827 39.952 37.4933 40.848 37.536 42H35.44C35.3973 41.3493 35.1787 40.8693 34.784 40.56C34.4 40.2507 33.7813 40.096 32.928 40.096C32.2667 40.096 31.76 40.2187 31.408 40.464C31.056 40.7093 30.88 41.056 30.88 41.504C30.88 41.9627 31.04 42.3147 31.36 42.56C31.6907 42.8053 32.272 43.0133 33.104 43.184L34.096 43.376C35.4293 43.6427 36.3893 44.0427 36.976 44.576C37.5733 45.0987 37.872 45.824 37.872 46.752C37.872 47.8613 37.4667 48.7253 36.656 49.344C35.8453 49.952 34.7147 50.256 33.264 50.256ZM46.9395 50H44.6355L42.2355 46.16L40.9875 47.408V50H39.0035V38.608H40.9875V45.168L44.3475 41.744H46.7475L43.6275 44.864L46.9395 50ZM49.6441 40.672H47.6601V38.784H49.6441V40.672ZM49.6601 50H47.6441V41.744H49.6601V50ZM55.8608 41.552C56.9914 41.552 57.8928 41.9413 58.5648 42.72C59.2261 43.5093 59.5568 44.56 59.5568 45.872C59.5568 47.1733 59.2261 48.2187 58.5648 49.008C57.8928 49.7973 56.9914 50.192 55.8608 50.192C54.7408 50.192 53.8874 49.7707 53.3008 48.928V53.136H51.2848V41.744H53.2208V42.928C53.8181 42.0107 54.6981 41.552 55.8608 41.552ZM53.8288 47.84C54.1914 48.2987 54.7088 48.528 55.3808 48.528C56.0421 48.528 56.5648 48.288 56.9488 47.808C57.3221 47.3387 57.5088 46.672 57.5088 45.808C57.5088 44.9653 57.3221 44.3253 56.9488 43.888C56.5861 43.44 56.0634 43.216 55.3808 43.216C54.7088 43.216 54.1861 43.4453 53.8128 43.904C53.4394 44.3627 53.2528 45.0187 53.2528 45.872C53.2528 46.736 53.4448 47.392 53.8288 47.84Z" fill="#E9EDF4"/>
</g>
<path d="M49.3893 1.33907C59.7777 2.65142 69.3302 7.70923 76.2548 15.5636C83.1793 23.4179 87 33.5291 87 44" stroke="black" stroke-opacity="0.2" stroke-width="2" stroke-linecap="round" stroke-linejoin="round"/>
<path d="M49.3893 1.33907C59.7777 2.65142 69.3302 7.70923 76.2548 15.5636C83.1793 23.4179 87 33.5291 87 44" stroke="#0C54C5" stroke-width="2" stroke-linecap="round" stroke-linejoin="round"/>
<path d="M86.6609 49.3893C85.3486 59.7777 80.2908 69.3302 72.4364 76.2548C64.5821 83.1793 54.4709 87 44 87" stroke="black" stroke-opacity="0.2" stroke-width="2" stroke-linecap="round" stroke-linejoin="round"/>
<path d="M86.6609 49.3893C85.3486 59.7777 80.2908 69.3302 72.4364 76.2548C64.5821 83.1793 54.4709 87 44 87" stroke="#0C54C5" stroke-width="2" stroke-linecap="round" stroke-linejoin="round"/>
<path d="M38.6107 86.6609C28.2223 85.3486 18.6698 80.2908 11.7452 72.4364C4.82068 64.5821 1 54.4709 1 44" stroke="black" stroke-opacity="0.2" stroke-width="2" stroke-linecap="round" stroke-linejoin="round"/>
<path d="M38.6107 86.6609C28.2223 85.3486 18.6698 80.2908 11.7452 72.4364C4.82068 64.5821 1 54.4709 1 44" stroke="#0C54C5" stroke-width="2" stroke-linecap="round" stroke-linejoin="round"/>
<path d="M1.33431 38.6484C2.63829 28.2524 7.69311 18.6902 15.5493 11.7578C23.4055 4.82545 33.5225 1 44 1" stroke="black" stroke-opacity="0.2" stroke-width="2" stroke-linecap="round" stroke-linejoin="round"/>
<defs>
<filter id="filter0_i_1_21" x="8" y="8" width="72" height="72" filterUnits="userSpaceOnUse" color-interpolation-filters="sRGB">
<feFlood flood-opacity="0" result="BackgroundImageFix"/>
<feBlend mode="normal" in="SourceGraphic" in2="BackgroundImageFix" result="shape"/>
<feColorMatrix in="SourceAlpha" type="matrix" values="0 0 0 0 0 0 0 0 0 0 0 0 0 0 0 0 0 0 127 0" result="hardAlpha"/>
<feOffset dy="2"/>
<feComposite in2="hardAlpha" operator="arithmetic" k2="-1" k3="1"/>
<feColorMatrix type="matrix" values="0 0 0 0 0.0706771 0 0 0 0 0.229657 0 0 0 0 0.479167 0 0 0 0.6 0"/>
<feBlend mode="normal" in2="shape" result="effect1_innerShadow_1_21"/>
</filter>
</defs>
</svg>
