<?xml version="1.0" encoding="UTF-8"?>
<svg xmlns="http://www.w3.org/2000/svg" xmlns:xlink="http://www.w3.org/1999/xlink" width="32px" height="32px" viewBox="0 0 32 31" version="1.1">
<g id="surface1">
<path style=" stroke:none;fill-rule:nonzero;fill:rgb(0%,0%,0%);fill-opacity:1;" d="M 27.339844 4.539062 C 21.09375 -1.511719 10.929688 -1.511719 4.683594 4.539062 C -1.5625 10.589844 -1.5625 20.433594 4.683594 26.488281 C 7.808594 29.511719 11.910156 31.023438 16.011719 31.023438 C 20.117188 31.023438 24.21875 29.511719 27.339844 26.488281 C 33.585938 20.433594 33.585938 10.589844 27.339844 4.539062 Z M 5.554688 5.382812 C 8.4375 2.589844 12.226562 1.191406 16.011719 1.191406 C 19.609375 1.191406 23.203125 2.453125 26.023438 4.96875 L 5.128906 25.210938 C -0.207031 19.597656 -0.0625 10.828125 5.554688 5.382812 Z M 26.46875 25.644531 C 20.851562 31.085938 11.792969 31.222656 6 26.054688 L 26.894531 5.8125 C 32.230469 11.425781 32.089844 20.199219 26.46875 25.644531 Z M 26.46875 25.644531 "/>
<path style=" stroke:none;fill-rule:nonzero;fill:rgb(0%,0%,0%);fill-opacity:1;" d="M 14.195312 8.988281 L 11.699219 8.988281 L 11.699219 6.558594 C 11.699219 6.230469 11.425781 5.960938 11.082031 5.960938 C 10.742188 5.960938 10.46875 6.230469 10.46875 6.558594 L 10.46875 8.988281 L 8.035156 8.988281 C 7.691406 8.988281 7.417969 9.257812 7.417969 9.585938 C 7.417969 9.914062 7.691406 10.183594 8.035156 10.183594 L 10.46875 10.183594 L 10.46875 12.527344 C 10.46875 12.859375 10.742188 13.125 11.082031 13.125 C 11.425781 13.125 11.699219 12.859375 11.699219 12.527344 L 11.699219 10.183594 L 14.195312 10.183594 C 14.535156 10.183594 14.8125 9.914062 14.8125 9.585938 C 14.8125 9.257812 14.535156 8.988281 14.195312 8.988281 Z M 14.195312 8.988281 "/>
<path style=" stroke:none;fill-rule:nonzero;fill:rgb(0%,0%,0%);fill-opacity:1;" d="M 24.023438 20.289062 L 17.859375 20.289062 C 17.519531 20.289062 17.246094 20.554688 17.246094 20.886719 C 17.246094 21.214844 17.519531 21.480469 17.859375 21.480469 L 24.023438 21.480469 C 24.363281 21.480469 24.640625 21.214844 24.640625 20.886719 C 24.640625 20.554688 24.363281 20.289062 24.023438 20.289062 Z M 24.023438 20.289062 "/>
</g>
</svg>
