<svg width="27" height="28" viewBox="0 0 27 28" fill="none" xmlns="http://www.w3.org/2000/svg">
<path d="M6.92025 2H2.92025C2.18387 2 1.58691 2.59695 1.58691 3.33333V7.33333C1.58691 8.06971 2.18387 8.66667 2.92025 8.66667H6.92025C7.65663 8.66667 8.25358 8.06971 8.25358 7.33333V3.33333C8.25358 2.59695 7.65663 2 6.92025 2Z" stroke="#0F0E13" stroke-width="2.00255" stroke-linecap="round" stroke-linejoin="round"/>
<path d="M15.1865 11.3333H11.9865C11.3974 11.3333 10.9199 11.8109 10.9199 12.4V15.6C10.9199 16.1891 11.3974 16.6666 11.9865 16.6666H15.1865C15.7756 16.6666 16.2532 16.1891 16.2532 15.6V12.4C16.2532 11.8109 15.7756 11.3333 15.1865 11.3333Z" stroke="#0F0E13" stroke-width="2.00255" stroke-linecap="round" stroke-linejoin="round"/>
<path d="M24.2533 19.3333H20.2533C19.5169 19.3333 18.9199 19.9303 18.9199 20.6667V24.6667C18.9199 25.4031 19.5169 26 20.2533 26H24.2533C24.9896 26 25.5866 25.4031 25.5866 24.6667V20.6667C25.5866 19.9303 24.9896 19.3333 24.2533 19.3333Z" stroke="#0F0E13" stroke-width="2.00255" stroke-linecap="round" stroke-linejoin="round"/>
<path d="M24.2533 2H20.2533C19.5169 2 18.9199 2.59695 18.9199 3.33333V7.33333C18.9199 8.06971 19.5169 8.66667 20.2533 8.66667H24.2533C24.9896 8.66667 25.5866 8.06971 25.5866 7.33333V3.33333C25.5866 2.59695 24.9896 2 24.2533 2Z" stroke="#0F0E13" stroke-width="2.00255" stroke-linecap="round" stroke-linejoin="round"/>
<path d="M6.92025 19.3333H2.92025C2.18387 19.3333 1.58691 19.9303 1.58691 20.6667V24.6667C1.58691 25.4031 2.18387 26 2.92025 26H6.92025C7.65663 26 8.25358 25.4031 8.25358 24.6667V20.6667C8.25358 19.9303 7.65663 19.3333 6.92025 19.3333Z" stroke="#0F0E13" stroke-width="2.00255" stroke-linecap="round" stroke-linejoin="round"/>
<path d="M1.58691 14H6.93358" stroke="#0F0E13" stroke-width="2.00255" stroke-linecap="round" stroke-linejoin="round"/>
<path d="M13.5867 2H13.602" stroke="#0F0E13" stroke-width="2.00255" stroke-linecap="round" stroke-linejoin="round"/>
<path d="M25.5868 14V14.0153" stroke="#0F0E13" stroke-width="2.00255" stroke-linecap="round" stroke-linejoin="round"/>
<path d="M20.2537 14V14.0153" stroke="#0F0E13" stroke-width="2.00255" stroke-linecap="round" stroke-linejoin="round"/>
<path d="M13.5867 26V24.6667" stroke="#0F0E13" stroke-width="2.00255" stroke-linecap="round" stroke-linejoin="round"/>
</svg>
