<svg width="27" height="26" viewBox="0 0 27 26" fill="none" xmlns="http://www.w3.org/2000/svg">
<path d="M4.06011 1.62565H2.55819C2.2817 1.62565 2.05756 1.84979 2.05756 2.12628V3.6282C2.05756 3.90469 2.2817 4.12883 2.55819 4.12883H4.06011C4.3366 4.12883 4.56075 3.90469 4.56075 3.6282V2.12628C4.56075 1.84979 4.3366 1.62565 4.06011 1.62565Z" stroke="#0F0E13" stroke-width="1.00128" stroke-linecap="round" stroke-linejoin="round"/>
<path d="M7.16413 5.13008H5.9626C5.7414 5.13008 5.56209 5.3094 5.56209 5.5306V6.73213C5.56209 6.95332 5.7414 7.13264 5.9626 7.13264H7.16413C7.38532 7.13264 7.56464 6.95332 7.56464 6.73213V5.5306C7.56464 5.3094 7.38532 5.13008 7.16413 5.13008Z" stroke="#0F0E13" stroke-width="1.00128" stroke-linecap="round" stroke-linejoin="round"/>
<path d="M10.5686 8.13394H9.06665C8.79016 8.13394 8.56602 8.35808 8.56602 8.63458V10.1365C8.56602 10.413 8.79016 10.6371 9.06665 10.6371H10.5686C10.8451 10.6371 11.0692 10.413 11.0692 10.1365V8.63458C11.0692 8.35808 10.8451 8.13394 10.5686 8.13394Z" stroke="#0F0E13" stroke-width="1.00128" stroke-linecap="round" stroke-linejoin="round"/>
<path d="M10.5686 1.62565H9.06665C8.79016 1.62565 8.56602 1.84979 8.56602 2.12628V3.6282C8.56602 3.90469 8.79016 4.12883 9.06665 4.12883H10.5686C10.8451 4.12883 11.0692 3.90469 11.0692 3.6282V2.12628C11.0692 1.84979 10.8451 1.62565 10.5686 1.62565Z" stroke="#0F0E13" stroke-width="1.00128" stroke-linecap="round" stroke-linejoin="round"/>
<path d="M4.06011 8.13394H2.55819C2.2817 8.13394 2.05756 8.35808 2.05756 8.63458V10.1365C2.05756 10.413 2.2817 10.6371 2.55819 10.6371H4.06011C4.3366 10.6371 4.56075 10.413 4.56075 10.1365V8.63458C4.56075 8.35808 4.3366 8.13394 4.06011 8.13394Z" stroke="#0F0E13" stroke-width="1.00128" stroke-linecap="round" stroke-linejoin="round"/>
<path d="M2.05756 6.13141H4.06511" stroke="#0F0E13" stroke-width="1.00128" stroke-linecap="round" stroke-linejoin="round"/>
<path d="M6.56327 1.62565H6.5709" stroke="#0F0E13" stroke-width="1.00128" stroke-linecap="round" stroke-linejoin="round"/>
<path d="M11.069 6.13141V6.13903" stroke="#0F0E13" stroke-width="1.00128" stroke-linecap="round" stroke-linejoin="round"/>
<path d="M11.069 6.13141V6.13903" stroke="#0F0E13" stroke-width="1.00128" stroke-linecap="round" stroke-linejoin="round"/>
<path d="M9.06662 6.13141V6.13903" stroke="#0F0E13" stroke-width="1.00128" stroke-linecap="round" stroke-linejoin="round"/>
<path d="M6.56327 10.6371V10.1365" stroke="#0F0E13" stroke-width="1.00128" stroke-linecap="round" stroke-linejoin="round"/>
<path d="M4.06011 15.6435H2.55819C2.2817 15.6435 2.05756 15.8677 2.05756 16.1442V17.6461C2.05756 17.9226 2.2817 18.1467 2.55819 18.1467H4.06011C4.3366 18.1467 4.56075 17.9226 4.56075 17.6461V16.1442C4.56075 15.8677 4.3366 15.6435 4.06011 15.6435Z" stroke="#0F0E13" stroke-width="1.00128" stroke-linecap="round" stroke-linejoin="round"/>
<path d="M7.16411 19.148H5.96258C5.74139 19.148 5.56207 19.3273 5.56207 19.5485V20.75C5.56207 20.9712 5.74139 21.1505 5.96258 21.1505H7.16411C7.38531 21.1505 7.56462 20.9712 7.56462 20.75V19.5485C7.56462 19.3273 7.38531 19.148 7.16411 19.148Z" stroke="#0F0E13" stroke-width="1.00128" stroke-linecap="round" stroke-linejoin="round"/>
<path d="M10.5686 22.1518H9.06668C8.79018 22.1518 8.56604 22.376 8.56604 22.6525V24.1544C8.56604 24.4309 8.79018 24.655 9.06668 24.655H10.5686C10.8451 24.655 11.0692 24.4309 11.0692 24.1544V22.6525C11.0692 22.376 10.8451 22.1518 10.5686 22.1518Z" stroke="#0F0E13" stroke-width="1.00128" stroke-linecap="round" stroke-linejoin="round"/>
<path d="M10.5686 15.6435H9.06668C8.79018 15.6435 8.56604 15.8677 8.56604 16.1442V17.6461C8.56604 17.9226 8.79018 18.1467 9.06668 18.1467H10.5686C10.8451 18.1467 11.0692 17.9226 11.0692 17.6461V16.1442C11.0692 15.8677 10.8451 15.6435 10.5686 15.6435Z" stroke="#0F0E13" stroke-width="1.00128" stroke-linecap="round" stroke-linejoin="round"/>
<path d="M4.06011 22.1518H2.55819C2.2817 22.1518 2.05756 22.376 2.05756 22.6525V24.1544C2.05756 24.4309 2.2817 24.655 2.55819 24.655H4.06011C4.3366 24.655 4.56075 24.4309 4.56075 24.1544V22.6525C4.56075 22.376 4.3366 22.1518 4.06011 22.1518Z" stroke="#0F0E13" stroke-width="1.00128" stroke-linecap="round" stroke-linejoin="round"/>
<path d="M2.05756 20.1493H4.06511" stroke="#0F0E13" stroke-width="1.00128" stroke-linecap="round" stroke-linejoin="round"/>
<path d="M6.56329 15.6435H6.57091" stroke="#0F0E13" stroke-width="1.00128" stroke-linecap="round" stroke-linejoin="round"/>
<path d="M11.069 20.1493V20.1569" stroke="#0F0E13" stroke-width="1.00128" stroke-linecap="round" stroke-linejoin="round"/>
<path d="M11.069 20.1493V20.1569" stroke="#0F0E13" stroke-width="1.00128" stroke-linecap="round" stroke-linejoin="round"/>
<path d="M9.06659 20.1493V20.1569" stroke="#0F0E13" stroke-width="1.00128" stroke-linecap="round" stroke-linejoin="round"/>
<path d="M6.56329 24.655V24.1544" stroke="#0F0E13" stroke-width="1.00128" stroke-linecap="round" stroke-linejoin="round"/>
<path d="M18.0779 1.62565H16.576C16.2995 1.62565 16.0754 1.84979 16.0754 2.12628V3.6282C16.0754 3.90469 16.2995 4.12883 16.576 4.12883H18.0779C18.3544 4.12883 18.5786 3.90469 18.5786 3.6282V2.12628C18.5786 1.84979 18.3544 1.62565 18.0779 1.62565Z" stroke="#0F0E13" stroke-width="1.00128" stroke-linecap="round" stroke-linejoin="round"/>
<path d="M21.182 5.13008H19.9804C19.7592 5.13008 19.5799 5.3094 19.5799 5.5306V6.73213C19.5799 6.95332 19.7592 7.13264 19.9804 7.13264H21.182C21.4032 7.13264 21.5825 6.95332 21.5825 6.73213V5.5306C21.5825 5.3094 21.4032 5.13008 21.182 5.13008Z" stroke="#0F0E13" stroke-width="1.00128" stroke-linecap="round" stroke-linejoin="round"/>
<path d="M24.5864 8.13394H23.0845C22.808 8.13394 22.5839 8.35808 22.5839 8.63458V10.1365C22.5839 10.413 22.808 10.6371 23.0845 10.6371H24.5864C24.8629 10.6371 25.0871 10.413 25.0871 10.1365V8.63458C25.0871 8.35808 24.8629 8.13394 24.5864 8.13394Z" stroke="#0F0E13" stroke-width="1.00128" stroke-linecap="round" stroke-linejoin="round"/>
<path d="M24.5864 1.62565H23.0845C22.808 1.62565 22.5839 1.84979 22.5839 2.12628V3.6282C22.5839 3.90469 22.808 4.12883 23.0845 4.12883H24.5864C24.8629 4.12883 25.0871 3.90469 25.0871 3.6282V2.12628C25.0871 1.84979 24.8629 1.62565 24.5864 1.62565Z" stroke="#0F0E13" stroke-width="1.00128" stroke-linecap="round" stroke-linejoin="round"/>
<path d="M18.0779 8.13394H16.576C16.2995 8.13394 16.0754 8.35808 16.0754 8.63458V10.1365C16.0754 10.413 16.2995 10.6371 16.576 10.6371H18.0779C18.3544 10.6371 18.5786 10.413 18.5786 10.1365V8.63458C18.5786 8.35808 18.3544 8.13394 18.0779 8.13394Z" stroke="#0F0E13" stroke-width="1.00128" stroke-linecap="round" stroke-linejoin="round"/>
<path d="M16.0754 6.13141H18.0829" stroke="#0F0E13" stroke-width="1.00128" stroke-linecap="round" stroke-linejoin="round"/>
<path d="M20.5811 1.62565H20.5888" stroke="#0F0E13" stroke-width="1.00128" stroke-linecap="round" stroke-linejoin="round"/>
<path d="M25.0869 6.13141V6.13903" stroke="#0F0E13" stroke-width="1.00128" stroke-linecap="round" stroke-linejoin="round"/>
<path d="M25.0869 6.13141V6.13903" stroke="#0F0E13" stroke-width="1.00128" stroke-linecap="round" stroke-linejoin="round"/>
<path d="M23.0844 6.13141V6.13903" stroke="#0F0E13" stroke-width="1.00128" stroke-linecap="round" stroke-linejoin="round"/>
<path d="M20.5811 10.6371V10.1365" stroke="#0F0E13" stroke-width="1.00128" stroke-linecap="round" stroke-linejoin="round"/>
<path d="M18.0779 15.6435H16.576C16.2995 15.6435 16.0754 15.8677 16.0754 16.1442V17.6461C16.0754 17.9226 16.2995 18.1467 16.576 18.1467H18.0779C18.3544 18.1467 18.5786 17.9226 18.5786 17.6461V16.1442C18.5786 15.8677 18.3544 15.6435 18.0779 15.6435Z" stroke="#0F0E13" stroke-width="1.00128" stroke-linecap="round" stroke-linejoin="round"/>
<path d="M21.1819 19.148H19.9804C19.7592 19.148 19.5799 19.3273 19.5799 19.5485V20.75C19.5799 20.9712 19.7592 21.1505 19.9804 21.1505H21.1819C21.4031 21.1505 21.5824 20.9712 21.5824 20.75V19.5485C21.5824 19.3273 21.4031 19.148 21.1819 19.148Z" stroke="#0F0E13" stroke-width="1.00128" stroke-linecap="round" stroke-linejoin="round"/>
<path d="M24.5864 22.1518H23.0845C22.808 22.1518 22.5839 22.376 22.5839 22.6525V24.1544C22.5839 24.4309 22.808 24.655 23.0845 24.655H24.5864C24.8629 24.655 25.0871 24.4309 25.0871 24.1544V22.6525C25.0871 22.376 24.8629 22.1518 24.5864 22.1518Z" stroke="#0F0E13" stroke-width="1.00128" stroke-linecap="round" stroke-linejoin="round"/>
<path d="M24.5864 15.6435H23.0845C22.808 15.6435 22.5839 15.8677 22.5839 16.1442V17.6461C22.5839 17.9226 22.808 18.1467 23.0845 18.1467H24.5864C24.8629 18.1467 25.0871 17.9226 25.0871 17.6461V16.1442C25.0871 15.8677 24.8629 15.6435 24.5864 15.6435Z" stroke="#0F0E13" stroke-width="1.00128" stroke-linecap="round" stroke-linejoin="round"/>
<path d="M18.0779 22.1518H16.576C16.2995 22.1518 16.0754 22.376 16.0754 22.6525V24.1544C16.0754 24.4309 16.2995 24.655 16.576 24.655H18.0779C18.3544 24.655 18.5786 24.4309 18.5786 24.1544V22.6525C18.5786 22.376 18.3544 22.1518 18.0779 22.1518Z" stroke="#0F0E13" stroke-width="1.00128" stroke-linecap="round" stroke-linejoin="round"/>
<path d="M16.0754 20.1493H18.0829" stroke="#0F0E13" stroke-width="1.00128" stroke-linecap="round" stroke-linejoin="round"/>
<path d="M20.5811 15.6435H20.5887" stroke="#0F0E13" stroke-width="1.00128" stroke-linecap="round" stroke-linejoin="round"/>
<path d="M25.0869 20.1493V20.1569" stroke="#0F0E13" stroke-width="1.00128" stroke-linecap="round" stroke-linejoin="round"/>
<path d="M25.0869 20.1493V20.1569" stroke="#0F0E13" stroke-width="1.00128" stroke-linecap="round" stroke-linejoin="round"/>
<path d="M23.0844 20.1493V20.1569" stroke="#0F0E13" stroke-width="1.00128" stroke-linecap="round" stroke-linejoin="round"/>
<path d="M20.5811 24.655V24.1544" stroke="#0F0E13" stroke-width="1.00128" stroke-linecap="round" stroke-linejoin="round"/>
<path d="M4.06011 1.62565H2.55819C2.2817 1.62565 2.05756 1.84979 2.05756 2.12628V3.6282C2.05756 3.90469 2.2817 4.12883 2.55819 4.12883H4.06011C4.3366 4.12883 4.56075 3.90469 4.56075 3.6282V2.12628C4.56075 1.84979 4.3366 1.62565 4.06011 1.62565Z" stroke="#0F0E13" stroke-width="1.00128" stroke-linecap="round" stroke-linejoin="round"/>
<path d="M7.16413 5.13008H5.9626C5.7414 5.13008 5.56209 5.3094 5.56209 5.5306V6.73213C5.56209 6.95332 5.7414 7.13264 5.9626 7.13264H7.16413C7.38532 7.13264 7.56464 6.95332 7.56464 6.73213V5.5306C7.56464 5.3094 7.38532 5.13008 7.16413 5.13008Z" stroke="#0F0E13" stroke-width="1.00128" stroke-linecap="round" stroke-linejoin="round"/>
<path d="M10.5686 8.13394H9.06665C8.79016 8.13394 8.56602 8.35808 8.56602 8.63458V10.1365C8.56602 10.413 8.79016 10.6371 9.06665 10.6371H10.5686C10.8451 10.6371 11.0692 10.413 11.0692 10.1365V8.63458C11.0692 8.35808 10.8451 8.13394 10.5686 8.13394Z" stroke="#0F0E13" stroke-width="1.00128" stroke-linecap="round" stroke-linejoin="round"/>
<path d="M10.5686 1.62565H9.06665C8.79016 1.62565 8.56602 1.84979 8.56602 2.12628V3.6282C8.56602 3.90469 8.79016 4.12883 9.06665 4.12883H10.5686C10.8451 4.12883 11.0692 3.90469 11.0692 3.6282V2.12628C11.0692 1.84979 10.8451 1.62565 10.5686 1.62565Z" stroke="#0F0E13" stroke-width="1.00128" stroke-linecap="round" stroke-linejoin="round"/>
<path d="M4.06011 8.13394H2.55819C2.2817 8.13394 2.05756 8.35808 2.05756 8.63458V10.1365C2.05756 10.413 2.2817 10.6371 2.55819 10.6371H4.06011C4.3366 10.6371 4.56075 10.413 4.56075 10.1365V8.63458C4.56075 8.35808 4.3366 8.13394 4.06011 8.13394Z" stroke="#0F0E13" stroke-width="1.00128" stroke-linecap="round" stroke-linejoin="round"/>
<path d="M2.05756 6.13141H4.06511" stroke="#0F0E13" stroke-width="1.00128" stroke-linecap="round" stroke-linejoin="round"/>
<path d="M6.56327 1.62565H6.5709" stroke="#0F0E13" stroke-width="1.00128" stroke-linecap="round" stroke-linejoin="round"/>
<path d="M11.069 6.13141V6.13903" stroke="#0F0E13" stroke-width="1.00128" stroke-linecap="round" stroke-linejoin="round"/>
<path d="M11.069 6.13141V6.13903" stroke="#0F0E13" stroke-width="1.00128" stroke-linecap="round" stroke-linejoin="round"/>
<path d="M9.06662 6.13141V6.13903" stroke="#0F0E13" stroke-width="1.00128" stroke-linecap="round" stroke-linejoin="round"/>
<path d="M6.56327 10.6371V10.1365" stroke="#0F0E13" stroke-width="1.00128" stroke-linecap="round" stroke-linejoin="round"/>
<path d="M4.06011 15.6435H2.55819C2.2817 15.6435 2.05756 15.8677 2.05756 16.1442V17.6461C2.05756 17.9226 2.2817 18.1467 2.55819 18.1467H4.06011C4.3366 18.1467 4.56075 17.9226 4.56075 17.6461V16.1442C4.56075 15.8677 4.3366 15.6435 4.06011 15.6435Z" stroke="#0F0E13" stroke-width="1.00128" stroke-linecap="round" stroke-linejoin="round"/>
<path d="M7.16411 19.148H5.96258C5.74139 19.148 5.56207 19.3273 5.56207 19.5485V20.75C5.56207 20.9712 5.74139 21.1505 5.96258 21.1505H7.16411C7.38531 21.1505 7.56462 20.9712 7.56462 20.75V19.5485C7.56462 19.3273 7.38531 19.148 7.16411 19.148Z" stroke="#0F0E13" stroke-width="1.00128" stroke-linecap="round" stroke-linejoin="round"/>
<path d="M10.5686 22.1518H9.06668C8.79018 22.1518 8.56604 22.376 8.56604 22.6525V24.1544C8.56604 24.4309 8.79018 24.655 9.06668 24.655H10.5686C10.8451 24.655 11.0692 24.4309 11.0692 24.1544V22.6525C11.0692 22.376 10.8451 22.1518 10.5686 22.1518Z" stroke="#0F0E13" stroke-width="1.00128" stroke-linecap="round" stroke-linejoin="round"/>
<path d="M10.5686 15.6435H9.06668C8.79018 15.6435 8.56604 15.8677 8.56604 16.1442V17.6461C8.56604 17.9226 8.79018 18.1467 9.06668 18.1467H10.5686C10.8451 18.1467 11.0692 17.9226 11.0692 17.6461V16.1442C11.0692 15.8677 10.8451 15.6435 10.5686 15.6435Z" stroke="#0F0E13" stroke-width="1.00128" stroke-linecap="round" stroke-linejoin="round"/>
<path d="M4.06011 22.1518H2.55819C2.2817 22.1518 2.05756 22.376 2.05756 22.6525V24.1544C2.05756 24.4309 2.2817 24.655 2.55819 24.655H4.06011C4.3366 24.655 4.56075 24.4309 4.56075 24.1544V22.6525C4.56075 22.376 4.3366 22.1518 4.06011 22.1518Z" stroke="#0F0E13" stroke-width="1.00128" stroke-linecap="round" stroke-linejoin="round"/>
<path d="M2.05756 20.1493H4.06511" stroke="#0F0E13" stroke-width="1.00128" stroke-linecap="round" stroke-linejoin="round"/>
<path d="M6.56329 15.6435H6.57091" stroke="#0F0E13" stroke-width="1.00128" stroke-linecap="round" stroke-linejoin="round"/>
<path d="M11.069 20.1493V20.1569" stroke="#0F0E13" stroke-width="1.00128" stroke-linecap="round" stroke-linejoin="round"/>
<path d="M11.069 20.1493V20.1569" stroke="#0F0E13" stroke-width="1.00128" stroke-linecap="round" stroke-linejoin="round"/>
<path d="M9.06659 20.1493V20.1569" stroke="#0F0E13" stroke-width="1.00128" stroke-linecap="round" stroke-linejoin="round"/>
<path d="M6.56329 24.655V24.1544" stroke="#0F0E13" stroke-width="1.00128" stroke-linecap="round" stroke-linejoin="round"/>
<path d="M18.0779 1.62565H16.576C16.2995 1.62565 16.0754 1.84979 16.0754 2.12628V3.6282C16.0754 3.90469 16.2995 4.12883 16.576 4.12883H18.0779C18.3544 4.12883 18.5786 3.90469 18.5786 3.6282V2.12628C18.5786 1.84979 18.3544 1.62565 18.0779 1.62565Z" stroke="#0F0E13" stroke-width="1.00128" stroke-linecap="round" stroke-linejoin="round"/>
<path d="M21.182 5.13008H19.9804C19.7592 5.13008 19.5799 5.3094 19.5799 5.5306V6.73213C19.5799 6.95332 19.7592 7.13264 19.9804 7.13264H21.182C21.4032 7.13264 21.5825 6.95332 21.5825 6.73213V5.5306C21.5825 5.3094 21.4032 5.13008 21.182 5.13008Z" stroke="#0F0E13" stroke-width="1.00128" stroke-linecap="round" stroke-linejoin="round"/>
<path d="M24.5864 8.13394H23.0845C22.808 8.13394 22.5839 8.35808 22.5839 8.63458V10.1365C22.5839 10.413 22.808 10.6371 23.0845 10.6371H24.5864C24.8629 10.6371 25.0871 10.413 25.0871 10.1365V8.63458C25.0871 8.35808 24.8629 8.13394 24.5864 8.13394Z" stroke="#0F0E13" stroke-width="1.00128" stroke-linecap="round" stroke-linejoin="round"/>
<path d="M24.5864 1.62565H23.0845C22.808 1.62565 22.5839 1.84979 22.5839 2.12628V3.6282C22.5839 3.90469 22.808 4.12883 23.0845 4.12883H24.5864C24.8629 4.12883 25.0871 3.90469 25.0871 3.6282V2.12628C25.0871 1.84979 24.8629 1.62565 24.5864 1.62565Z" stroke="#0F0E13" stroke-width="1.00128" stroke-linecap="round" stroke-linejoin="round"/>
<path d="M18.0779 8.13394H16.576C16.2995 8.13394 16.0754 8.35808 16.0754 8.63458V10.1365C16.0754 10.413 16.2995 10.6371 16.576 10.6371H18.0779C18.3544 10.6371 18.5786 10.413 18.5786 10.1365V8.63458C18.5786 8.35808 18.3544 8.13394 18.0779 8.13394Z" stroke="#0F0E13" stroke-width="1.00128" stroke-linecap="round" stroke-linejoin="round"/>
<path d="M16.0754 6.13141H18.0829" stroke="#0F0E13" stroke-width="1.00128" stroke-linecap="round" stroke-linejoin="round"/>
<path d="M20.5811 1.62565H20.5888" stroke="#0F0E13" stroke-width="1.00128" stroke-linecap="round" stroke-linejoin="round"/>
<path d="M25.0869 6.13141V6.13903" stroke="#0F0E13" stroke-width="1.00128" stroke-linecap="round" stroke-linejoin="round"/>
<path d="M25.0869 6.13141V6.13903" stroke="#0F0E13" stroke-width="1.00128" stroke-linecap="round" stroke-linejoin="round"/>
<path d="M23.0844 6.13141V6.13903" stroke="#0F0E13" stroke-width="1.00128" stroke-linecap="round" stroke-linejoin="round"/>
<path d="M20.5811 10.6371V10.1365" stroke="#0F0E13" stroke-width="1.00128" stroke-linecap="round" stroke-linejoin="round"/>
<path d="M18.0779 15.6435H16.576C16.2995 15.6435 16.0754 15.8677 16.0754 16.1442V17.6461C16.0754 17.9226 16.2995 18.1467 16.576 18.1467H18.0779C18.3544 18.1467 18.5786 17.9226 18.5786 17.6461V16.1442C18.5786 15.8677 18.3544 15.6435 18.0779 15.6435Z" stroke="#0F0E13" stroke-width="1.00128" stroke-linecap="round" stroke-linejoin="round"/>
<path d="M21.1819 19.148H19.9804C19.7592 19.148 19.5799 19.3273 19.5799 19.5485V20.75C19.5799 20.9712 19.7592 21.1505 19.9804 21.1505H21.1819C21.4031 21.1505 21.5824 20.9712 21.5824 20.75V19.5485C21.5824 19.3273 21.4031 19.148 21.1819 19.148Z" stroke="#0F0E13" stroke-width="1.00128" stroke-linecap="round" stroke-linejoin="round"/>
<path d="M24.5864 22.1518H23.0845C22.808 22.1518 22.5839 22.376 22.5839 22.6525V24.1544C22.5839 24.4309 22.808 24.655 23.0845 24.655H24.5864C24.8629 24.655 25.0871 24.4309 25.0871 24.1544V22.6525C25.0871 22.376 24.8629 22.1518 24.5864 22.1518Z" stroke="#0F0E13" stroke-width="1.00128" stroke-linecap="round" stroke-linejoin="round"/>
<path d="M24.5864 15.6435H23.0845C22.808 15.6435 22.5839 15.8677 22.5839 16.1442V17.6461C22.5839 17.9226 22.808 18.1467 23.0845 18.1467H24.5864C24.8629 18.1467 25.0871 17.9226 25.0871 17.6461V16.1442C25.0871 15.8677 24.8629 15.6435 24.5864 15.6435Z" stroke="#0F0E13" stroke-width="1.00128" stroke-linecap="round" stroke-linejoin="round"/>
<path d="M18.0779 22.1518H16.576C16.2995 22.1518 16.0754 22.376 16.0754 22.6525V24.1544C16.0754 24.4309 16.2995 24.655 16.576 24.655H18.0779C18.3544 24.655 18.5786 24.4309 18.5786 24.1544V22.6525C18.5786 22.376 18.3544 22.1518 18.0779 22.1518Z" stroke="#0F0E13" stroke-width="1.00128" stroke-linecap="round" stroke-linejoin="round"/>
<path d="M16.0754 20.1493H18.0829" stroke="#0F0E13" stroke-width="1.00128" stroke-linecap="round" stroke-linejoin="round"/>
<path d="M20.5811 15.6435H20.5887" stroke="#0F0E13" stroke-width="1.00128" stroke-linecap="round" stroke-linejoin="round"/>
<path d="M25.0869 20.1493V20.1569" stroke="#0F0E13" stroke-width="1.00128" stroke-linecap="round" stroke-linejoin="round"/>
<path d="M25.0869 20.1493V20.1569" stroke="#0F0E13" stroke-width="1.00128" stroke-linecap="round" stroke-linejoin="round"/>
<path d="M23.0844 20.1493V20.1569" stroke="#0F0E13" stroke-width="1.00128" stroke-linecap="round" stroke-linejoin="round"/>
<path d="M20.5811 24.655V24.1544" stroke="#0F0E13" stroke-width="1.00128" stroke-linecap="round" stroke-linejoin="round"/>
</svg>
