<svg width="40" height="40" viewBox="0 0 40 40" fill="none" xmlns="http://www.w3.org/2000/svg">
<rect width="40" height="40" fill="#F5F5F5"/>
<path d="M32.3333 33.3333H16C15.7348 33.3333 15.4804 33.228 15.2929 33.0404C15.1054 32.8529 15 32.5986 15 32.3333V16C15 15.7348 15.1054 15.4804 15.2929 15.2929C15.4804 15.1054 15.7348 15 16 15H32.3333C32.5986 15 32.8529 15.1054 33.0404 15.2929C33.228 15.4804 33.3333 15.7348 33.3333 16V32.3333C33.3333 32.5986 33.228 32.8529 33.0404 33.0404C32.8529 33.228 32.5986 33.3333 32.3333 33.3333Z" stroke="black" stroke-width="1.5" stroke-linecap="round" stroke-linejoin="round"/>
<path d="M25 15V7.66666C25 7.40144 24.8946 7.14709 24.7071 6.95955C24.5196 6.77201 24.2652 6.66666 24 6.66666H7.66667C7.40145 6.66666 7.1471 6.77201 6.95956 6.95955C6.77202 7.14709 6.66667 7.40144 6.66667 7.66666V24C6.66667 24.2652 6.77202 24.5196 6.95956 24.7071C7.1471 24.8946 7.40145 25 7.66667 25H15" stroke="black" stroke-width="1.5" stroke-linecap="round" stroke-linejoin="round"/>
</svg>
