<svg width="33" height="32" viewBox="0 0 33 32" fill="none" xmlns="http://www.w3.org/2000/svg">
<path d="M9.83344 4.00001H5.83344C5.09706 4.00001 4.50011 4.59696 4.50011 5.33334V9.33334C4.50011 10.0697 5.09706 10.6667 5.83344 10.6667H9.83344C10.5698 10.6667 11.1668 10.0697 11.1668 9.33334V5.33334C11.1668 4.59696 10.5698 4.00001 9.83344 4.00001Z" stroke="#0F0E13" stroke-width="2.00255" stroke-linecap="round" stroke-linejoin="round"/>
<path d="M27.1667 4.00001H23.1667C22.4304 4.00001 21.8334 4.59696 21.8334 5.33334V9.33334C21.8334 10.0697 22.4304 10.6667 23.1667 10.6667H27.1667C27.9031 10.6667 28.5001 10.0697 28.5001 9.33334V5.33334C28.5001 4.59696 27.9031 4.00001 27.1667 4.00001Z" stroke="#0F0E13" stroke-width="2.00255" stroke-linecap="round" stroke-linejoin="round"/>
<path d="M9.83344 21.3333H5.83344C5.09706 21.3333 4.50011 21.9303 4.50011 22.6666V26.6666C4.50011 27.403 5.09706 28 5.83344 28H9.83344C10.5698 28 11.1668 27.403 11.1668 26.6666V22.6666C11.1668 21.9303 10.5698 21.3333 9.83344 21.3333Z" stroke="#0F0E13" stroke-width="2.00255" stroke-linecap="round" stroke-linejoin="round"/>
<path d="M28.5001 21.3333H24.5001C23.7928 21.3333 23.1145 21.6143 22.6145 22.1144C22.1144 22.6145 21.8334 23.2927 21.8334 24V28" stroke="#0F0E13" stroke-width="2.00255" stroke-linecap="round" stroke-linejoin="round"/>
<path d="M28.5 28V28.0153" stroke="#0F0E13" stroke-width="2.00255" stroke-linecap="round" stroke-linejoin="round"/>
<path d="M16.5002 9.33332V13.3333C16.5002 14.0406 16.2193 14.7188 15.7192 15.2189C15.2191 15.719 14.5408 16 13.8336 16H9.83357" stroke="#0F0E13" stroke-width="2.00255" stroke-linecap="round" stroke-linejoin="round"/>
<path d="M4.50011 16H4.51541" stroke="#0F0E13" stroke-width="2.00255" stroke-linecap="round" stroke-linejoin="round"/>
<path d="M16.4999 4.00001H16.5152" stroke="#0F0E13" stroke-width="2.00255" stroke-linecap="round" stroke-linejoin="round"/>
<path d="M16.4999 21.3333V21.3486" stroke="#0F0E13" stroke-width="2.00255" stroke-linecap="round" stroke-linejoin="round"/>
<path d="M21.8334 16H23.1667" stroke="#0F0E13" stroke-width="2.00255" stroke-linecap="round" stroke-linejoin="round"/>
<path d="M28.5 16V16.0153" stroke="#0F0E13" stroke-width="2.00255" stroke-linecap="round" stroke-linejoin="round"/>
<path d="M16.4999 28V26.6667" stroke="#0F0E13" stroke-width="2.00255" stroke-linecap="round" stroke-linejoin="round"/>
<path d="M9.83344 4.00001H5.83344C5.09706 4.00001 4.50011 4.59696 4.50011 5.33334V9.33334C4.50011 10.0697 5.09706 10.6667 5.83344 10.6667H9.83344C10.5698 10.6667 11.1668 10.0697 11.1668 9.33334V5.33334C11.1668 4.59696 10.5698 4.00001 9.83344 4.00001Z" stroke="#0F0E13" stroke-width="2.00255" stroke-linecap="round" stroke-linejoin="round"/>
<path d="M27.1667 4.00001H23.1667C22.4304 4.00001 21.8334 4.59696 21.8334 5.33334V9.33334C21.8334 10.0697 22.4304 10.6667 23.1667 10.6667H27.1667C27.9031 10.6667 28.5001 10.0697 28.5001 9.33334V5.33334C28.5001 4.59696 27.9031 4.00001 27.1667 4.00001Z" stroke="#0F0E13" stroke-width="2.00255" stroke-linecap="round" stroke-linejoin="round"/>
<path d="M9.83344 21.3333H5.83344C5.09706 21.3333 4.50011 21.9303 4.50011 22.6666V26.6666C4.50011 27.403 5.09706 28 5.83344 28H9.83344C10.5698 28 11.1668 27.403 11.1668 26.6666V22.6666C11.1668 21.9303 10.5698 21.3333 9.83344 21.3333Z" stroke="#0F0E13" stroke-width="2.00255" stroke-linecap="round" stroke-linejoin="round"/>
<path d="M28.5001 21.3333H24.5001C23.7928 21.3333 23.1145 21.6143 22.6145 22.1144C22.1144 22.6145 21.8334 23.2927 21.8334 24V28" stroke="#0F0E13" stroke-width="2.00255" stroke-linecap="round" stroke-linejoin="round"/>
<path d="M28.5 28V28.0153" stroke="#0F0E13" stroke-width="2.00255" stroke-linecap="round" stroke-linejoin="round"/>
<path d="M16.5002 9.33332V13.3333C16.5002 14.0406 16.2193 14.7188 15.7192 15.2189C15.2191 15.719 14.5408 16 13.8336 16H9.83357" stroke="#0F0E13" stroke-width="2.00255" stroke-linecap="round" stroke-linejoin="round"/>
<path d="M4.50011 16H4.51541" stroke="#0F0E13" stroke-width="2.00255" stroke-linecap="round" stroke-linejoin="round"/>
<path d="M16.4999 4.00001H16.5152" stroke="#0F0E13" stroke-width="2.00255" stroke-linecap="round" stroke-linejoin="round"/>
<path d="M16.4999 21.3333V21.3486" stroke="#0F0E13" stroke-width="2.00255" stroke-linecap="round" stroke-linejoin="round"/>
<path d="M21.8334 16H23.1667" stroke="#0F0E13" stroke-width="2.00255" stroke-linecap="round" stroke-linejoin="round"/>
<path d="M28.5 16V16.0153" stroke="#0F0E13" stroke-width="2.00255" stroke-linecap="round" stroke-linejoin="round"/>
<path d="M16.4999 28V26.6667" stroke="#0F0E13" stroke-width="2.00255" stroke-linecap="round" stroke-linejoin="round"/>
</svg>
