<svg width="375" height="812" viewBox="0 0 375 812" fill="none" xmlns="http://www.w3.org/2000/svg">
<rect width="375" height="812" fill="white"/>
<g clip-path="url(#clip0_1_2)">
<path d="M148.444 422.402C146.83 422.441 145.224 422.154 143.72 421.558C142.216 420.961 140.845 420.067 139.687 418.928C138.529 417.788 137.607 416.427 136.975 414.922C136.343 413.418 136.013 411.801 136.005 410.166C135.974 408.558 136.262 406.96 136.853 405.468C137.443 403.975 138.324 402.617 139.443 401.476C140.562 400.335 141.896 399.432 143.366 398.823C144.836 398.214 146.412 397.91 148 397.93C153.167 397.93 157.119 400.526 158.79 404.861C159.124 405.735 158.634 406.305 157.743 406.305H154.799C154.485 406.315 154.175 406.228 153.912 406.054C153.649 405.881 153.444 405.63 153.326 405.335C152.804 404.429 152.046 403.685 151.134 403.187C150.222 402.689 149.192 402.454 148.157 402.51C147.198 402.538 146.254 402.76 145.381 403.162C144.507 403.564 143.722 404.138 143.07 404.851C142.418 405.564 141.914 406.401 141.585 407.313C141.257 408.226 141.111 409.196 141.157 410.166C141.13 411.178 141.308 412.185 141.678 413.126C142.049 414.067 142.605 414.921 143.312 415.637C144.019 416.354 144.863 416.916 145.792 417.291C146.722 417.667 147.717 417.846 148.717 417.819C149.916 417.817 151.1 417.556 152.192 417.054C153.283 416.551 154.257 415.82 155.048 414.908C155.136 414.765 155.254 414.643 155.392 414.549C155.531 414.455 155.687 414.392 155.852 414.364C156.016 414.336 156.184 414.344 156.346 414.387C156.507 414.429 156.657 414.506 156.787 414.612L157.79 415.312C157.94 415.392 158.071 415.504 158.174 415.641C158.277 415.778 158.349 415.936 158.384 416.104C158.419 416.272 158.417 416.446 158.379 416.613C158.34 416.78 158.265 416.937 158.16 417.072C157.169 418.7 155.784 420.046 154.135 420.979C152.486 421.913 150.629 422.404 148.74 422.405C148.64 422.405 148.542 422.404 148.444 422.402ZM173.169 422.402C166.659 422.402 161.889 416.984 161.893 410.166C161.893 403.371 166.663 397.93 173.173 397.93C174.713 397.908 176.239 398.23 177.642 398.875C179.044 399.52 180.289 400.471 181.285 401.661V399.742C181.266 399.571 181.285 399.398 181.34 399.236C181.396 399.074 181.487 398.927 181.607 398.805C181.727 398.684 181.872 398.591 182.032 398.534C182.192 398.477 182.362 398.458 182.531 398.477H185.096C185.265 398.457 185.436 398.477 185.596 398.533C185.756 398.59 185.902 398.682 186.022 398.804C186.142 398.926 186.234 399.073 186.29 399.235C186.346 399.398 186.365 399.571 186.345 399.742V420.593C186.366 420.764 186.347 420.937 186.291 421.1C186.236 421.263 186.145 421.411 186.024 421.534C185.904 421.656 185.758 421.749 185.597 421.806C185.437 421.863 185.265 421.882 185.096 421.862H182.531C182.362 421.882 182.192 421.863 182.031 421.806C181.871 421.749 181.726 421.657 181.606 421.535C181.486 421.414 181.394 421.267 181.339 421.105C181.283 420.942 181.264 420.769 181.283 420.599V418.701C180.297 419.862 179.075 420.794 177.701 421.433C176.327 422.072 174.832 422.403 173.32 422.403L173.169 422.402ZM169.012 415.521C170.007 416.61 171.312 417.36 172.745 417.668C174.179 417.976 175.672 417.826 177.018 417.239C178.364 416.652 179.498 415.657 180.262 414.391C181.026 413.125 181.384 411.65 181.287 410.17C181.336 409.192 181.188 408.214 180.852 407.296C180.517 406.377 180 405.538 179.334 404.828C178.668 404.118 177.866 403.553 176.977 403.167C176.088 402.781 175.131 402.581 174.164 402.581C173.197 402.581 172.24 402.781 171.351 403.167C170.462 403.553 169.66 404.118 168.994 404.828C168.328 405.538 167.811 406.377 167.476 407.296C167.14 408.214 166.992 409.192 167.041 410.17C167 411.15 167.153 412.128 167.492 413.047C167.83 413.966 168.347 414.807 169.012 415.521ZM246.28 410.17C246.28 403.375 251.672 397.934 258.941 397.934C266.209 397.934 271.584 403.374 271.584 410.17C271.584 416.965 266.211 422.405 258.941 422.405C251.671 422.405 246.276 416.963 246.28 410.17ZM264.285 415.6C264.986 414.887 265.538 414.04 265.91 413.107C266.282 412.175 266.465 411.177 266.45 410.172C266.468 409.162 266.287 408.159 265.918 407.22C265.549 406.282 264.998 405.427 264.299 404.707C263.6 403.986 262.766 403.413 261.846 403.023C260.926 402.632 259.938 402.431 258.941 402.431C257.943 402.431 256.955 402.632 256.035 403.023C255.115 403.413 254.281 403.986 253.582 404.707C252.883 405.427 252.333 406.282 251.963 407.22C251.594 408.159 251.413 409.162 251.431 410.172C251.428 411.682 251.867 413.158 252.693 414.416C253.518 415.673 254.693 416.654 256.07 417.235C257.446 417.816 258.961 417.971 260.425 417.681C261.888 417.39 263.233 416.667 264.29 415.602L264.285 415.6ZM111.459 417.326C111.342 417.208 111.25 417.066 111.19 416.91C111.129 416.754 111.101 416.587 111.107 416.42C111.114 416.253 111.154 416.089 111.226 415.938C111.298 415.788 111.401 415.654 111.527 415.546L112.33 414.663C112.43 414.523 112.56 414.409 112.712 414.329C112.863 414.25 113.031 414.207 113.201 414.204C113.372 414.202 113.541 414.24 113.694 414.315C113.848 414.391 113.982 414.501 114.086 414.638C116.001 416.594 118.589 417.726 121.309 417.797C124.83 417.797 127.352 416.015 127.352 413.261C127.352 410.801 125.719 408.836 120.485 407.73C114.156 406.38 110.879 403.171 110.879 398.567C110.879 393.351 115.048 389.719 121.023 389.719C126.195 389.719 130.858 392.245 131.835 397.64C131.991 398.498 131.502 398.996 130.654 398.996H127.818C127.063 398.996 126.683 398.612 126.461 397.844C125.837 395.541 123.832 394.324 121.246 394.324C118.323 394.324 116.207 395.881 116.207 398.183C116.207 400.688 118.146 402.335 122.76 403.397C129.805 405.02 132.683 408.267 132.683 413.147C132.683 418.542 128.425 422.402 121.469 422.402C119.535 422.35 117.636 421.869 115.906 420.992C114.176 420.115 112.658 418.864 111.459 417.326ZM221.154 421.535C221.033 421.414 220.941 421.267 220.885 421.104C220.829 420.942 220.809 420.769 220.828 420.598V402.993H217.802C217.633 403.012 217.462 402.993 217.302 402.936C217.142 402.88 216.996 402.787 216.876 402.666C216.756 402.545 216.665 402.397 216.609 402.235C216.553 402.073 216.534 401.9 216.553 401.729V399.742C216.533 399.571 216.552 399.398 216.608 399.235C216.664 399.073 216.756 398.926 216.876 398.804C216.996 398.682 217.142 398.59 217.302 398.533C217.462 398.477 217.633 398.457 217.802 398.477H220.833V397.103C220.833 391.596 223.67 388.909 229.505 388.909C229.952 388.909 230.399 388.932 230.843 388.978C231.009 388.979 231.173 389.015 231.324 389.084C231.474 389.154 231.609 389.254 231.719 389.38C231.829 389.506 231.911 389.653 231.96 389.813C232.01 389.973 232.026 390.142 232.006 390.309V392.044C232.006 392.878 231.65 393.303 230.98 393.264C230.624 393.243 230.268 393.243 229.954 393.243C227.033 393.243 225.92 394.549 225.92 397.168V398.477H230.751C230.92 398.457 231.091 398.476 231.251 398.533C231.412 398.589 231.557 398.682 231.677 398.803C231.797 398.925 231.889 399.073 231.944 399.235C232 399.398 232.019 399.571 231.999 399.742V401.727C232.019 401.898 232 402.071 231.944 402.233C231.889 402.396 231.797 402.543 231.677 402.665C231.557 402.787 231.412 402.879 231.251 402.936C231.091 402.992 230.92 403.011 230.751 402.992H225.917V420.596C225.936 420.767 225.917 420.94 225.861 421.103C225.806 421.265 225.714 421.412 225.594 421.534C225.474 421.656 225.329 421.749 225.169 421.805C225.008 421.862 224.837 421.882 224.669 421.862H222.079C221.91 421.882 221.738 421.864 221.578 421.807C221.417 421.751 221.271 421.658 221.15 421.536L221.154 421.535ZM240.035 421.861H237.445C237.276 421.881 237.105 421.861 236.945 421.805C236.784 421.748 236.638 421.655 236.518 421.533C236.398 421.411 236.307 421.263 236.251 421.101C236.196 420.938 236.177 420.765 236.197 420.594V390.171C236.178 390.001 236.197 389.828 236.253 389.666C236.309 389.503 236.401 389.356 236.521 389.235C236.641 389.113 236.786 389.021 236.947 388.964C237.107 388.908 237.278 388.888 237.446 388.908H240.036C240.205 388.889 240.376 388.908 240.536 388.965C240.696 389.022 240.842 389.115 240.962 389.237C241.081 389.359 241.173 389.506 241.228 389.669C241.284 389.831 241.303 390.004 241.283 390.175V420.596C241.302 420.767 241.283 420.94 241.227 421.102C241.172 421.264 241.08 421.411 240.96 421.532C240.841 421.654 240.695 421.746 240.535 421.803C240.375 421.86 240.205 421.879 240.036 421.86L240.035 421.861ZM212.675 421.861H210.085C209.917 421.88 209.746 421.861 209.586 421.804C209.426 421.748 209.281 421.655 209.161 421.534C209.041 421.412 208.949 421.265 208.893 421.103C208.838 420.941 208.818 420.768 208.837 420.598V407.89C208.878 407.183 208.772 406.476 208.527 405.813C208.282 405.151 207.902 404.547 207.413 404.042C206.924 403.536 206.336 403.14 205.687 402.878C205.038 402.616 204.341 402.494 203.643 402.521C202.828 402.542 202.026 402.728 201.282 403.066C200.539 403.405 199.87 403.89 199.314 404.493C198.758 405.097 198.326 405.806 198.044 406.58C197.762 407.354 197.635 408.178 197.67 409.002V420.603C197.689 420.773 197.67 420.945 197.613 421.107C197.557 421.269 197.466 421.416 197.346 421.537C197.226 421.658 197.081 421.75 196.921 421.806C196.761 421.863 196.591 421.882 196.422 421.862H193.814C193.645 421.882 193.475 421.862 193.315 421.806C193.155 421.749 193.009 421.656 192.889 421.535C192.769 421.414 192.678 421.266 192.622 421.104C192.566 420.942 192.547 420.769 192.566 420.599V399.742C192.547 399.571 192.566 399.398 192.622 399.236C192.677 399.073 192.769 398.926 192.889 398.805C193.009 398.683 193.154 398.59 193.314 398.534C193.475 398.477 193.645 398.457 193.814 398.477H196.422C196.591 398.457 196.762 398.476 196.922 398.533C197.082 398.59 197.228 398.682 197.348 398.804C197.468 398.926 197.559 399.073 197.615 399.235C197.671 399.398 197.69 399.571 197.67 399.742V401.591C198.472 400.461 199.528 399.541 200.75 398.905C201.972 398.27 203.326 397.937 204.7 397.935C210.249 397.935 213.929 401.681 213.929 407.435V420.596C213.949 420.768 213.93 420.941 213.874 421.104C213.818 421.267 213.726 421.415 213.605 421.537C213.485 421.659 213.338 421.751 213.177 421.808C213.016 421.864 212.844 421.883 212.675 421.862V421.861ZM299.045 421.861H295.968C295.648 421.889 295.33 421.796 295.075 421.6C294.82 421.404 294.645 421.12 294.585 420.801L290.26 405.271L285.957 420.801C285.898 421.12 285.724 421.405 285.468 421.601C285.213 421.797 284.894 421.89 284.575 421.861H281.498C281.179 421.892 280.86 421.803 280.601 421.612C280.342 421.42 280.161 421.139 280.093 420.822L273.653 399.9C273.386 399.019 273.786 398.477 274.677 398.477H277.354C277.674 398.449 277.992 398.542 278.247 398.738C278.503 398.934 278.677 399.219 278.737 399.538L283.127 415.245L287.385 399.554C287.44 399.232 287.613 398.941 287.869 398.741C288.125 398.541 288.446 398.446 288.768 398.474H291.755C292.077 398.451 292.396 398.549 292.65 398.749C292.905 398.95 293.078 399.238 293.136 399.559L297.418 415.245L301.786 399.538C301.845 399.219 302.02 398.934 302.275 398.738C302.531 398.542 302.849 398.449 303.169 398.477H305.866C306.757 398.477 307.159 399.016 306.891 399.9L300.449 420.822C300.385 421.118 300.223 421.383 299.991 421.573C299.758 421.763 299.468 421.867 299.169 421.867C299.128 421.862 299.088 421.862 299.046 421.862L299.045 421.861Z" fill="#000B21"/>
<path d="M72.3203 406.504C73.4883 403.214 75.5173 400.308 78.1906 398.096C79.5856 396.681 81.3437 395.689 83.2662 395.233C85.1888 394.777 87.1991 394.874 89.0699 395.514C90.9407 396.154 92.5974 397.311 93.8528 398.854C95.1081 400.397 95.9121 402.265 96.1738 404.246C96.3491 400.351 95.3518 396.494 93.3139 393.185C91.735 390.65 89.5623 388.549 86.9886 387.068C86.4768 387.024 85.96 386.996 85.4371 386.996C81.7953 386.997 78.2351 388.09 75.2059 390.136C72.1766 392.183 69.8138 395.092 68.4155 398.496C67.0172 401.901 66.6461 405.648 67.3489 409.266C68.0517 412.884 69.7971 416.21 72.3647 418.825C70.9623 414.843 70.9466 410.496 72.3203 406.504Z" fill="url(#paint0_radial_1_2)"/>
<path d="M81.6649 415.585C80.0524 414.914 78.6283 413.851 77.5191 412.49C76.4098 411.129 75.6497 409.511 75.3063 407.781C74.9628 406.051 75.0466 404.262 75.5503 402.572C76.0539 400.883 76.9618 399.345 78.1933 398.096C75.5201 400.308 73.491 403.214 72.3231 406.504C70.9467 410.497 70.9606 414.846 72.3625 418.83C74.4067 420.912 76.9071 422.477 79.6607 423.397C82.4143 424.317 85.3435 424.567 88.2103 424.125C91.0771 423.684 93.8007 422.565 96.1599 420.858C98.519 419.151 100.447 416.904 101.788 414.301C98.8226 416.569 95.2429 417.864 91.5297 418.012C88.0847 418.121 84.6749 417.282 81.6637 415.585H81.6649Z" fill="url(#paint1_radial_1_2)"/>
<path d="M86.991 387.071C89.5647 388.552 91.7374 390.654 93.3163 393.189C95.3543 396.498 96.3516 400.355 96.1762 404.25C96.4228 406.114 96.1808 408.011 95.4743 409.75C94.7679 411.489 93.6219 413.009 92.1515 414.158C90.681 415.307 88.9379 416.044 87.0972 416.295C85.2565 416.546 83.3829 416.302 81.6646 415.588C84.6758 417.286 88.0856 418.125 91.5306 418.016C95.2439 417.867 98.8235 416.572 101.789 414.305C103.194 411.578 103.912 408.541 103.878 405.466C103.844 402.39 103.06 399.37 101.596 396.676C100.131 393.981 98.0311 391.694 95.4829 390.019C92.9348 388.344 90.0172 387.333 86.9898 387.075L86.991 387.071Z" fill="url(#paint2_radial_1_2)"/>
</g>
<defs>
<radialGradient id="paint0_radial_1_2" cx="0" cy="0" r="1" gradientUnits="userSpaceOnUse" gradientTransform="translate(67.0023 410.072) scale(34.2413 37.3347)">
<stop stop-color="#FFDD55"/>
<stop offset="0.1" stop-color="#FFDD55"/>
<stop offset="0.5" stop-color="#FF543E"/>
<stop offset="0.833" stop-color="#FF543E"/>
<stop offset="1" stop-color="#0B1222" stop-opacity="0.251"/>
</radialGradient>
<radialGradient id="paint1_radial_1_2" cx="0" cy="0" r="1" gradientUnits="userSpaceOnUse" gradientTransform="translate(73.4349 404.551) scale(43.9318 37.8138)">
<stop stop-color="#0B1222"/>
<stop offset="0.26" stop-color="#3771C8"/>
<stop offset="1" stop-color="#4ABDFF"/>
</radialGradient>
<radialGradient id="paint2_radial_1_2" cx="0" cy="0" r="1" gradientUnits="userSpaceOnUse" gradientTransform="translate(94.7933 385.833) scale(24.5469 34.204)">
<stop stop-color="#14BAEF"/>
<stop offset="0.361" stop-color="#4977F1"/>
<stop offset="0.868" stop-color="#2155DD"/>
<stop offset="1" stop-color="#123283"/>
</radialGradient>
<clipPath id="clip0_1_2">
<rect width="240" height="38" fill="white" transform="translate(67 387)"/>
</clipPath>
</defs>
</svg>
