<svg width="33" height="33" viewBox="0 0 33 33" fill="none" xmlns="http://www.w3.org/2000/svg">
<path d="M4.69023 9.45328V6.78661C4.69023 6.07937 4.97118 5.40109 5.47127 4.90099C5.97137 4.4009 6.64965 4.11995 7.35689 4.11995H10.0236" stroke="#0F0E13" stroke-width="2.00255" stroke-linecap="round" stroke-linejoin="round"/>
<path d="M23.357 4.11995H26.0236C26.7309 4.11995 27.4092 4.4009 27.9093 4.90099C28.4094 5.40109 28.6903 6.07937 28.6903 6.78661V9.45328" stroke="#0F0E13" stroke-width="2.00255" stroke-linecap="round" stroke-linejoin="round"/>
<path d="M28.6903 22.7866V25.4533C28.6903 26.1605 28.4094 26.8388 27.9093 27.3389C27.4092 27.839 26.7309 28.1199 26.0236 28.1199H23.357" stroke="#0F0E13" stroke-width="2.00255" stroke-linecap="round" stroke-linejoin="round"/>
<path d="M10.0236 28.1199H7.35689C6.64965 28.1199 5.97137 27.839 5.47127 27.3389C4.97118 26.8388 4.69023 26.1605 4.69023 25.4533V22.7866" stroke="#0F0E13" stroke-width="2.00255" stroke-linecap="round" stroke-linejoin="round"/>
<path d="M10.0231 16.1199H23.3565" stroke="#0F0E13" stroke-width="2.00255" stroke-linecap="round" stroke-linejoin="round"/>
<path d="M4.69023 9.45328V6.78661C4.69023 6.07937 4.97118 5.40109 5.47127 4.90099C5.97137 4.4009 6.64965 4.11995 7.35689 4.11995H10.0236" stroke="#0F0E13" stroke-width="2.00255" stroke-linecap="round" stroke-linejoin="round"/>
<path d="M23.357 4.11995H26.0236C26.7309 4.11995 27.4092 4.4009 27.9093 4.90099C28.4094 5.40109 28.6903 6.07937 28.6903 6.78661V9.45328" stroke="#0F0E13" stroke-width="2.00255" stroke-linecap="round" stroke-linejoin="round"/>
<path d="M28.6903 22.7866V25.4533C28.6903 26.1605 28.4094 26.8388 27.9093 27.3389C27.4092 27.839 26.7309 28.1199 26.0236 28.1199H23.357" stroke="#0F0E13" stroke-width="2.00255" stroke-linecap="round" stroke-linejoin="round"/>
<path d="M10.0236 28.1199H7.35689C6.64965 28.1199 5.97137 27.839 5.47127 27.3389C4.97118 26.8388 4.69023 26.1605 4.69023 25.4533V22.7866" stroke="#0F0E13" stroke-width="2.00255" stroke-linecap="round" stroke-linejoin="round"/>
<path d="M10.0231 16.1199H23.3565" stroke="#0F0E13" stroke-width="2.00255" stroke-linecap="round" stroke-linejoin="round"/>
</svg>
