<svg width="252" height="38" viewBox="0 0 252 38" fill="none" xmlns="http://www.w3.org/2000/svg">
<path d="M5.318 19.5075C6.48597 16.2181 8.51506 13.312 11.1883 11.0997C12.5833 9.6848 14.3414 8.69312 16.2639 8.23682C18.1865 7.78053 20.1968 7.87778 22.0676 8.51761C23.9384 9.15744 25.5951 10.3143 26.8505 11.8575C28.1058 13.4007 28.9098 15.2686 29.1715 17.2502C29.3468 13.355 28.3495 9.49774 26.3116 6.18913C24.7327 3.65378 22.56 1.5523 19.9863 0.0711766C19.4745 0.0274769 18.9577 0 18.4348 0C14.793 0.000694542 11.2329 1.09326 8.20357 3.13989C5.17428 5.18651 2.81149 8.09552 1.41321 11.5C0.0149323 14.9045 -0.356211 18.652 0.346616 22.2698C1.04944 25.8876 2.79476 29.2136 5.36241 31.8284C3.96002 27.8468 3.94434 23.4994 5.318 19.5075Z" fill="url(#paint0_radial_1_2)"/>
<path d="M14.6626 28.5884C13.0501 27.9181 11.626 26.8551 10.5168 25.4937C9.40754 24.1324 8.64745 22.5148 8.304 20.7846C7.96055 19.0545 8.04435 17.2652 8.54799 15.5757C9.05163 13.8862 9.95951 12.3487 11.191 11.0998C8.51777 13.3119 6.48872 16.2181 5.3208 19.5075C3.94439 23.5003 3.95829 27.8497 5.36024 31.8334C7.40436 33.9156 9.90479 35.4804 12.6584 36.4006C15.412 37.3207 18.3412 37.5703 21.208 37.1291C24.0748 36.6879 26.7984 35.5683 29.1576 33.8613C31.5168 32.1543 33.445 29.908 34.7856 27.3049C31.8203 29.5725 28.2406 30.8673 24.5274 31.0156C21.0824 31.1249 17.6726 30.2861 14.6614 28.5884H14.6626Z" fill="url(#paint1_radial_1_2)"/>
<path d="M19.9887 0.0748482C22.5624 1.55597 24.7351 3.65749 26.314 6.19284C28.352 9.50142 29.3493 13.3586 29.1739 17.2538C29.4205 19.1176 29.1785 21.0143 28.472 22.7534C27.7656 24.4925 26.6196 26.0128 25.1492 27.1617C23.6788 28.3105 21.9357 29.0475 20.0949 29.2986C18.2542 29.5496 16.3806 29.306 14.6623 28.5921C17.6736 30.2898 21.0833 31.1286 24.5283 31.0193C28.2416 30.871 31.8212 29.5761 34.7865 27.3085C36.1917 24.5814 36.9093 21.545 36.8756 18.4693C36.8419 15.3936 36.0578 12.3741 34.5932 9.67923C33.1286 6.98438 31.0288 4.69777 28.4807 3.02281C25.9325 1.34785 23.0149 0.336471 19.9875 0.0786204L19.9887 0.0748482Z" fill="url(#paint2_radial_1_2)"/>
<path d="M92.5647 33.5013C90.9503 33.5407 89.3444 33.2537 87.8408 32.6572C86.3372 32.0607 84.9662 31.1666 83.808 30.0273C82.6498 28.888 81.7277 27.5262 81.0955 26.0218C80.4633 24.5173 80.1338 22.9003 80.1262 21.2654C80.0949 19.6576 80.383 18.0599 80.9735 16.5671C81.5641 15.0743 82.4449 13.7169 83.5638 12.5755C84.6826 11.4341 86.0167 10.5321 87.4867 9.92292C88.9566 9.31376 90.5325 9.00993 92.1208 9.02949C97.2881 9.02949 101.239 11.6252 102.91 15.9603C103.245 16.8343 102.755 17.4048 101.863 17.4048H98.9197C98.6057 17.4151 98.2961 17.3275 98.0328 17.1541C97.7695 16.9806 97.5651 16.7295 97.4472 16.4347C96.9251 15.5283 96.1664 14.7851 95.2544 14.2866C94.3424 13.7882 93.3124 13.5538 92.2774 13.6092C91.3184 13.6378 90.3747 13.8596 89.5014 14.2616C88.6281 14.6636 87.8426 15.2377 87.1909 15.9505C86.5392 16.6633 86.0344 17.5004 85.7058 18.413C85.3773 19.3255 85.2317 20.2952 85.2775 21.2654C85.251 22.2778 85.4285 23.285 85.799 24.2258C86.1695 25.1665 86.7254 26.0209 87.4328 26.737C88.1401 27.4532 88.9841 28.0159 89.9132 28.3911C90.8424 28.7662 91.8373 28.9459 92.8373 28.9191C94.0363 28.9162 95.2209 28.6551 96.3125 28.1531C97.4042 27.6511 98.3778 26.9197 99.1688 26.0074C99.2572 25.8645 99.3746 25.7421 99.5131 25.6484C99.6517 25.5548 99.8082 25.4919 99.9725 25.4639C100.137 25.4359 100.305 25.4436 100.466 25.4862C100.628 25.5289 100.778 25.6057 100.908 25.7115L101.91 26.412C102.061 26.4914 102.192 26.6035 102.295 26.7403C102.398 26.8771 102.469 27.0352 102.505 27.2033C102.54 27.3714 102.538 27.5454 102.499 27.7127C102.461 27.88 102.386 28.0366 102.28 28.1712C101.29 29.8 99.9047 31.1452 98.2559 32.0788C96.6071 33.0124 94.7499 33.5034 92.8607 33.5051C92.7612 33.5051 92.6626 33.5038 92.5647 33.5013ZM117.29 33.5013C110.78 33.5013 106.01 28.0838 106.013 21.2654C106.013 14.4707 110.784 9.02949 117.294 9.02949C118.834 9.00711 120.36 9.32999 121.763 9.97498C123.165 10.62 124.409 11.5711 125.406 12.7602V10.8412C125.387 10.6706 125.406 10.4979 125.461 10.3357C125.517 10.1736 125.608 10.0262 125.728 9.90467C125.847 9.78311 125.993 9.69046 126.153 9.63361C126.313 9.57677 126.483 9.5572 126.652 9.57636H129.217C129.386 9.55683 129.557 9.57611 129.717 9.63277C129.877 9.68943 130.023 9.782 130.143 9.90358C130.263 10.0252 130.354 10.1726 130.41 10.335C130.466 10.4973 130.485 10.6703 130.466 10.8412V31.6921C130.486 31.8634 130.468 32.037 130.412 32.1999C130.357 32.3629 130.265 32.511 130.145 32.6332C130.025 32.7554 129.879 32.8484 129.718 32.9053C129.557 32.9623 129.386 32.9816 129.217 32.9619H126.652C126.483 32.9815 126.312 32.9622 126.152 32.9056C125.992 32.849 125.846 32.7566 125.727 32.6351C125.607 32.5136 125.515 32.3663 125.459 32.2041C125.403 32.0419 125.384 31.8691 125.404 31.6984V29.8006C124.418 30.9618 123.196 31.8938 121.822 32.5328C120.447 33.1717 118.953 33.5025 117.441 33.5026L117.29 33.5013ZM113.133 26.6205C114.128 27.7098 115.432 28.4599 116.866 28.7675C118.3 29.0752 119.793 28.9252 121.139 28.3384C122.485 27.7515 123.618 26.7565 124.383 25.4905C125.147 24.2245 125.505 22.7497 125.407 21.2691C125.457 20.2913 125.309 19.3135 124.973 18.3952C124.637 17.4769 124.121 16.6374 123.455 15.9276C122.788 15.2178 121.986 14.6526 121.098 14.2664C120.209 13.8802 119.252 13.6811 118.285 13.6811C117.318 13.6811 116.361 13.8802 115.472 14.2664C114.583 14.6526 113.781 15.2178 113.115 15.9276C112.449 16.6374 111.932 17.4769 111.596 18.3952C111.261 19.3135 111.113 20.2913 111.162 21.2691C111.121 22.2492 111.274 23.2276 111.613 24.1467C111.951 25.0658 112.468 25.907 113.133 26.6205ZM190.401 21.2691C190.401 14.4745 195.793 9.03323 203.061 9.03323C210.33 9.03323 215.705 14.4732 215.705 21.2691C215.705 28.0651 210.331 33.5051 203.061 33.5051C195.791 33.5051 190.397 28.0626 190.401 21.2691ZM208.406 26.6991C209.107 25.9866 209.659 25.1392 210.031 24.2071C210.402 23.2749 210.586 22.2768 210.571 21.2716C210.589 20.2617 210.408 19.2582 210.039 18.3198C209.669 17.3814 209.119 16.5268 208.42 15.8061C207.721 15.0854 206.887 14.5129 205.967 14.1222C205.047 13.7314 204.059 13.5301 203.061 13.5301C202.064 13.5301 201.076 13.7314 200.156 14.1222C199.236 14.5129 198.402 15.0854 197.703 15.8061C197.004 16.5268 196.453 17.3814 196.084 18.3198C195.715 19.2582 195.534 20.2617 195.552 21.2716C195.549 22.7813 195.988 24.258 196.813 25.5152C197.639 26.7723 198.814 27.7535 200.19 28.3346C201.567 28.9158 203.082 29.0708 204.545 28.7802C206.009 28.4895 207.354 27.7662 208.411 26.7016L208.406 26.6991ZM55.5796 28.4259C55.4626 28.3074 55.371 28.1657 55.3106 28.0098C55.2501 27.8538 55.222 27.6869 55.2282 27.5195C55.2344 27.3523 55.2748 27.1883 55.347 27.0378C55.4192 26.8874 55.5215 26.7537 55.6475 26.6455L56.4503 25.7627C56.5503 25.6228 56.6812 25.5084 56.8326 25.4288C56.9839 25.3492 57.1516 25.3064 57.3222 25.304C57.4928 25.3016 57.6615 25.3395 57.8151 25.4148C57.9686 25.4901 58.1026 25.6007 58.2064 25.7378C60.1221 27.6937 62.7098 28.8254 65.4296 28.8966C68.9505 28.8966 71.4725 27.1149 71.4725 24.3606C71.4725 21.9009 69.8397 19.9357 64.6058 18.8295C58.2767 17.4798 55 14.271 55 9.66626C55 4.45101 59.1684 0.818942 65.1435 0.818942C70.3157 0.818942 74.9786 3.34478 75.9554 8.73982C76.112 9.59758 75.6224 10.0958 74.7751 10.0958H71.9387C71.1839 10.0958 70.8041 9.7112 70.5821 8.94334C69.9581 6.64099 67.9528 5.42364 65.3667 5.42364C62.4439 5.42364 60.3276 6.9806 60.3276 9.28295C60.3276 11.7876 62.2663 13.4344 66.8811 14.4969C73.9254 16.1201 76.8038 19.3663 76.8038 24.247C76.8038 29.642 72.5454 33.5013 65.5899 33.5013C63.6559 33.45 61.7567 32.9687 60.0268 32.0917C58.2969 31.2146 56.7787 29.9631 55.5796 28.4259ZM165.275 32.6348C165.154 32.5135 165.062 32.3661 165.006 32.2037C164.949 32.0414 164.93 31.8682 164.949 31.6971V14.0924H161.923C161.754 14.1119 161.583 14.0926 161.423 14.0361C161.263 13.9795 161.117 13.887 160.997 13.7656C160.877 13.6441 160.786 13.4968 160.73 13.3347C160.673 13.1725 160.654 12.9996 160.673 12.8289V10.8412C160.654 10.6703 160.673 10.4973 160.729 10.335C160.785 10.1726 160.876 10.0252 160.997 9.90358C161.117 9.782 161.262 9.68943 161.423 9.63277C161.583 9.57611 161.754 9.55683 161.923 9.57636H164.954V8.20294C164.954 2.69553 167.79 0.0086244 173.626 0.0086244C174.073 0.00853525 174.52 0.0314552 174.964 0.0772953C175.13 0.0782656 175.293 0.1146 175.444 0.183925C175.595 0.25325 175.73 0.354007 175.84 0.479615C175.949 0.605223 176.032 0.752857 176.081 0.912876C176.131 1.07289 176.146 1.2417 176.127 1.40826V3.14376C176.127 3.9778 175.771 4.40232 175.101 4.36361C174.745 4.34239 174.388 4.34238 174.075 4.34238C171.154 4.34238 170.041 5.64838 170.041 8.26787V9.57636H174.872C175.04 9.55655 175.211 9.57564 175.372 9.63222C175.532 9.68879 175.678 9.78138 175.798 9.90305C175.918 10.0247 176.009 10.1723 176.065 10.3348C176.121 10.4972 176.14 10.6703 176.12 10.8412V12.8264C176.14 12.9972 176.121 13.1703 176.065 13.3328C176.009 13.4952 175.918 13.6428 175.798 13.7645C175.678 13.8861 175.532 13.9787 175.372 14.0353C175.211 14.0919 175.04 14.111 174.872 14.0912H170.037V31.6959C170.057 31.8667 170.038 32.0398 169.982 32.2021C169.926 32.3645 169.835 32.5121 169.715 32.6338C169.595 32.7555 169.45 32.8482 169.289 32.905C169.129 32.9618 168.958 32.9813 168.789 32.9619H166.2C166.03 32.982 165.859 32.9632 165.698 32.9067C165.538 32.8503 165.391 32.7578 165.271 32.6361L165.275 32.6348ZM184.156 32.9607H181.566C181.397 32.9803 181.226 32.961 181.065 32.9042C180.905 32.8474 180.759 32.7546 180.639 32.6327C180.519 32.5108 180.428 32.363 180.372 32.2003C180.316 32.0377 180.298 31.8644 180.318 31.6934V1.27092C180.299 1.10019 180.318 0.927299 180.374 0.765119C180.43 0.602939 180.521 0.455649 180.642 0.334213C180.762 0.212777 180.907 0.120323 181.067 0.0637354C181.228 0.00714758 181.398 -0.012117 181.567 0.00737584H184.157C184.326 -0.0118154 184.497 0.00780916 184.657 0.0647866C184.817 0.121764 184.962 0.214624 185.082 0.336445C185.202 0.458266 185.293 0.605905 185.349 0.768355C185.405 0.930805 185.423 1.10388 185.404 1.27467V31.6959C185.423 31.8664 185.404 32.0392 185.348 32.2013C185.292 32.3634 185.201 32.5106 185.081 32.632C184.961 32.7535 184.816 32.846 184.656 32.9027C184.496 32.9594 184.325 32.9788 184.157 32.9594L184.156 32.9607ZM156.796 32.9607H154.206C154.038 32.98 153.867 32.9606 153.707 32.9039C153.547 32.8472 153.401 32.7547 153.282 32.6333C153.162 32.5119 153.07 32.3647 153.014 32.2026C152.958 32.0405 152.939 31.8678 152.958 31.6971V18.9893C152.999 18.2829 152.893 17.5757 152.648 16.913C152.402 16.2504 152.023 15.647 151.534 15.1415C151.045 14.636 150.457 14.2396 149.808 13.9776C149.158 13.7157 148.462 13.594 147.764 13.6205C146.949 13.6417 146.146 13.8271 145.403 14.1658C144.66 14.5045 143.991 14.9896 143.435 15.593C142.879 16.1964 142.447 16.9058 142.165 17.6799C141.883 18.4541 141.756 19.2774 141.791 20.1017V31.7021C141.81 31.8725 141.79 32.045 141.734 32.2067C141.678 32.3684 141.587 32.5152 141.467 32.6362C141.347 32.7573 141.201 32.8494 141.042 32.9058C140.882 32.9622 140.711 32.9814 140.543 32.9619H137.935C137.766 32.9812 137.596 32.9618 137.435 32.9051C137.275 32.8484 137.13 32.756 137.01 32.6346C136.89 32.5131 136.799 32.3659 136.743 32.2038C136.687 32.0418 136.668 31.869 136.687 31.6984V10.8412C136.667 10.6704 136.686 10.4975 136.742 10.3353C136.798 10.1731 136.89 10.0257 137.009 9.90412C137.129 9.78257 137.275 9.68997 137.435 9.63322C137.595 9.57647 137.766 9.55704 137.935 9.57636H140.543C140.712 9.55679 140.883 9.57606 141.043 9.63272C141.203 9.68938 141.349 9.78198 141.469 9.90359C141.589 10.0252 141.68 10.1727 141.736 10.335C141.792 10.4974 141.811 10.6704 141.791 10.8412V12.6903C142.593 11.5609 143.649 10.6405 144.871 10.0049C146.093 9.3693 147.447 9.0367 148.821 9.03448C154.37 9.03448 158.05 12.7802 158.05 18.5348V31.6959C158.07 31.8673 158.051 32.041 157.995 32.2039C157.939 32.3668 157.847 32.5147 157.726 32.6365C157.605 32.7583 157.459 32.8509 157.298 32.9073C157.137 32.9636 156.965 32.9823 156.796 32.9619V32.9607ZM243.165 32.9607H240.088C239.769 32.9887 239.451 32.8957 239.196 32.6999C238.94 32.5041 238.766 32.2193 238.706 31.9007L234.381 16.371L230.078 31.9007C230.019 32.2196 229.844 32.5047 229.589 32.7006C229.333 32.8965 229.015 32.9892 228.696 32.9607H225.619C225.3 32.9913 224.98 32.9025 224.722 32.7111C224.463 32.5197 224.282 32.2389 224.214 31.9219L217.774 10.9997C217.506 10.1182 217.907 9.57636 218.798 9.57636H221.475C221.794 9.54842 222.113 9.64151 222.368 9.83759C222.623 10.0337 222.798 10.3188 222.857 10.6376L227.248 26.3446L231.506 10.6539C231.561 10.3312 231.733 10.0411 231.99 9.84104C232.246 9.64102 232.566 9.54566 232.889 9.57386H235.876C236.197 9.55074 236.516 9.64867 236.771 9.84889C237.026 10.0491 237.199 10.3375 237.257 10.6589L241.539 26.3446L245.907 10.6376C245.966 10.3186 246.141 10.0334 246.396 9.83725C246.652 9.64112 246.97 9.54814 247.289 9.57636H249.986C250.878 9.57636 251.28 10.1157 251.011 10.9997L244.57 31.9219C244.506 32.2176 244.344 32.4823 244.111 32.6723C243.879 32.8624 243.589 32.9663 243.29 32.9669C243.249 32.9619 243.208 32.9619 243.167 32.9619L243.165 32.9607Z" fill="#000B21"/>
<defs>
<radialGradient id="paint0_radial_1_2" cx="0" cy="0" r="1" gradientUnits="userSpaceOnUse" gradientTransform="translate(0 23.0756) scale(34.2413 37.3347)">
<stop stop-color="#FFDD55"/>
<stop offset="0.1" stop-color="#FFDD55"/>
<stop offset="0.5" stop-color="#FF543E"/>
<stop offset="0.833" stop-color="#FF543E"/>
<stop offset="1" stop-color="#0B1222" stop-opacity="0.251"/>
</radialGradient>
<radialGradient id="paint1_radial_1_2" cx="0" cy="0" r="1" gradientUnits="userSpaceOnUse" gradientTransform="translate(6.43263 17.5551) scale(43.9318 37.8138)">
<stop stop-color="#0B1222"/>
<stop offset="0.26" stop-color="#3771C8"/>
<stop offset="1" stop-color="#4ABDFF"/>
</radialGradient>
<radialGradient id="paint2_radial_1_2" cx="0" cy="0" r="1" gradientUnits="userSpaceOnUse" gradientTransform="translate(27.791 -1.16331) scale(24.5469 34.204)">
<stop stop-color="#14BAEF"/>
<stop offset="0.361" stop-color="#4977F1"/>
<stop offset="0.868" stop-color="#2155DD"/>
<stop offset="1" stop-color="#123283"/>
</radialGradient>
</defs>
</svg>
