<svg width="64" height="64" viewBox="0 0 64 64" fill="none" xmlns="http://www.w3.org/2000/svg">
<rect width="64" height="64" rx="8" fill="white"/>
<path d="M17.7682 32.8966C19.0352 29.3729 21.2361 26.2598 24.1358 23.89C25.6489 22.3743 27.556 21.312 29.6414 20.8232C31.7268 20.3344 33.9073 20.4386 35.9366 21.124C37.9659 21.8094 39.7629 23.0487 41.1247 24.7017C42.4864 26.3548 43.3584 28.3558 43.6423 30.4785C43.8325 26.3059 42.7507 22.1739 40.5401 18.6297C38.8275 15.9138 36.4707 13.6626 33.679 12.076C33.1239 12.0292 32.5634 11.9997 31.9962 11.9997C28.0458 12.0005 24.1841 13.1709 20.8982 15.3633C17.6124 17.5556 15.0494 20.6718 13.5327 24.3188C12.016 27.9658 11.6134 31.9802 12.3758 35.8556C13.1381 39.731 15.0313 43.294 17.8164 46.095C16.2952 41.8298 16.2782 37.1728 17.7682 32.8966V32.8966Z" fill="url(#paint0_radial_1_12)"/>
<path d="M27.9047 42.6238C26.1556 41.9058 24.6109 40.7671 23.4077 39.3088C22.2045 37.8505 21.38 36.1177 21.0075 34.2643C20.6349 32.4109 20.7258 30.4942 21.2721 28.6844C21.8184 26.8745 22.8032 25.2276 24.1391 23.8897C21.2393 26.2594 19.0384 29.3725 17.7716 32.8963C16.2786 37.1734 16.2936 41.8325 17.8144 46.1C20.0316 48.3305 22.7439 50.0067 25.7307 50.9924C28.7176 51.9781 31.8949 52.2455 35.0045 51.7729C38.1142 51.3003 41.0685 50.1009 43.6275 48.2723C46.1865 46.4438 48.278 44.0375 49.7322 41.2489C46.5157 43.678 42.6329 45.0651 38.6051 45.2239C34.8683 45.3411 31.1697 44.4425 27.9034 42.6238H27.9047Z" fill="url(#paint1_radial_1_12)"/>
<path d="M33.6819 12.0796C36.4736 13.6662 38.8304 15.9174 40.5431 18.6333C42.7537 22.1775 43.8355 26.3095 43.6452 30.4821C43.9127 32.4786 43.6502 34.5104 42.8838 36.3733C42.1175 38.2363 40.8745 39.8649 39.2795 41.0956C37.6846 42.3262 35.7938 43.1157 33.7971 43.3846C31.8005 43.6536 29.7682 43.3926 27.9044 42.6278C31.1707 44.4464 34.8693 45.345 38.6061 45.2279C42.6339 45.0691 46.5167 43.682 49.7332 41.2529C51.2574 38.3315 52.0358 35.0788 51.9992 31.7841C51.9626 28.4894 51.1122 25.2548 49.5235 22.368C47.9349 19.4812 45.6572 17.0318 42.8932 15.2375C40.1292 13.4432 36.9645 12.3598 33.6806 12.0836L33.6819 12.0796Z" fill="url(#paint2_radial_1_12)"/>
<defs>
<radialGradient id="paint0_radial_1_12" cx="0" cy="0" r="1" gradientUnits="userSpaceOnUse" gradientTransform="translate(11.9998 36.7188) scale(37.1418 39.9937)">
<stop stop-color="#FFDD55"/>
<stop offset="0.1" stop-color="#FFDD55"/>
<stop offset="0.5" stop-color="#FF543E"/>
<stop offset="0.833" stop-color="#FF543E"/>
<stop offset="1" stop-color="#0B1222" stop-opacity="0.251"/>
</radialGradient>
<radialGradient id="paint1_radial_1_12" cx="0" cy="0" r="1" gradientUnits="userSpaceOnUse" gradientTransform="translate(18.9776 30.8048) scale(47.6531 40.507)">
<stop stop-color="#0B1222"/>
<stop offset="0.26" stop-color="#3771C8"/>
<stop offset="1" stop-color="#4ABDFF"/>
</radialGradient>
<radialGradient id="paint2_radial_1_12" cx="0" cy="0" r="1" gradientUnits="userSpaceOnUse" gradientTransform="translate(42.1451 10.7532) scale(26.6262 36.6401)">
<stop stop-color="#14BAEF"/>
<stop offset="0.361" stop-color="#4977F1"/>
<stop offset="0.868" stop-color="#2155DD"/>
<stop offset="1" stop-color="#123283"/>
</radialGradient>
</defs>
</svg>
